<svg width="126" height="52" viewBox="0 0 126 52" fill="none" xmlns="http://www.w3.org/2000/svg">
<g clip-path="url(#clip0_502_36)">
<path d="M20.9994 37.4588L21.182 37.6427C21.6064 37.9548 22.0829 38.0474 22.6011 38.025C23.0951 38.0038 23.5914 38.0198 24.0855 38.0206C24.1475 38.0206 24.2096 38.028 24.2997 38.0337C24.2937 38.396 24.2767 38.7423 24.2856 39.0875C24.2949 39.4651 24.4735 39.7502 24.8199 39.9083C25.1664 40.0664 25.495 40.0165 25.7879 39.7793C26.0271 39.5855 26.1215 39.319 26.1199 39.0137C26.1181 38.6852 26.1199 38.3567 26.1199 38.0169C26.8055 38.018 27.4579 38.0239 28.1103 38.0189C29.1072 38.0113 29.7809 37.3288 29.784 36.3259C29.7848 36.0247 29.7713 35.7234 29.764 35.4119C29.8806 35.4092 29.9586 35.4061 30.0365 35.4058C31.048 35.4018 31.7244 34.7257 31.7309 33.7112C31.7322 33.5234 31.7318 33.3357 31.7309 33.148C31.7275 32.0766 31.0608 31.407 29.9959 31.4066C28.7838 31.406 27.5719 31.406 26.3601 31.4066C26.2837 31.4066 26.2075 31.4025 26.1578 31.401L26.1578 20.5736C26.2165 20.5797 26.295 20.595 26.3736 20.5951C27.6144 20.5965 28.8552 20.6018 30.0961 20.5943C31.0387 20.5886 31.7183 19.8979 31.7316 18.9498C31.735 18.7044 31.7354 18.4588 31.7316 18.2134C31.7162 17.3099 31.0544 16.6328 30.1552 16.5979C30.035 16.5932 29.9147 16.5922 29.7717 16.5889C29.7764 16.2772 29.7858 15.9816 29.7844 15.6859C29.7819 14.6669 29.1107 13.9864 28.1019 13.9805C27.5137 13.9771 26.9256 13.9805 26.3373 13.9794C26.2683 13.9794 26.1991 13.9736 26.0946 13.9689C26.1025 13.5968 26.1246 13.2426 26.1135 12.8904C26.1021 12.5219 25.9196 12.2445 25.5815 12.0909C25.2361 11.9342 24.9061 11.9823 24.6131 12.219C24.3811 12.407 24.2821 12.6647 24.2826 12.9631C24.2826 13.2989 24.2826 13.6348 24.2826 13.9838C23.7266 13.9822 23.2032 13.9909 22.6805 13.9767C22.1873 13.9633 21.7083 13.9936 21.275 14.2645L20.9097 14.632C20.5079 15.2328 20.6419 15.9203 20.6113 16.6372C20.5061 16.622 20.4133 16.5963 20.3217 16.5972C19.35 16.6069 18.6775 17.2877 18.6695 18.2661C18.6678 18.4755 18.6685 18.6849 18.6695 18.8943C18.6742 19.909 19.3504 20.5921 20.3574 20.5947C21.2537 20.5968 22.1502 20.5947 23.0466 20.5936C23.454 20.5936 23.8613 20.5917 24.2518 20.5907L24.2518 31.3978C24.1917 31.399 24.1146 31.4022 24.0373 31.4023C22.7968 31.4023 21.5561 31.3978 20.3154 31.4042C19.3608 31.409 18.6815 32.0998 18.6715 33.0612C18.6691 33.2993 18.6671 33.5376 18.6715 33.7757C18.6901 34.6811 19.3915 35.3849 20.2933 35.3991C20.3985 35.4007 20.5044 35.3607 20.6479 35.3326C20.6325 35.5133 20.6212 35.5996 20.6185 35.6862C20.5984 36.3092 20.5752 36.9331 20.9994 37.4588Z" fill="white"/>
</g>
<path d="M17.5842 14.2128V18.816H7.97463V23.7888H15.165V28.2576H7.97463V37.8H2.22903V14.2128H17.5842Z" fill="white"/>
<path d="M50.9961 14.2128V18.816H44.7465V37.8H39.0009V18.816H32.7513V14.2128H50.9961ZM69.2348 14.2128V18.816H59.6252V23.7888H66.8156V28.2576H59.6252V37.8H53.8796V14.2128H69.2348ZM86.9378 33.6336H78.1346L76.7234 37.8H70.709L79.2434 14.2128H85.8962L94.4306 37.8H88.349L86.9378 33.6336ZM85.4594 29.1984L82.5362 20.5632L79.6466 29.1984H85.4594ZM123.74 14.2128V37.8H117.994V23.6544L112.719 37.8H108.082L102.774 23.6208V37.8H97.0281V14.2128H103.815L110.434 30.5424L116.986 14.2128H123.74Z" fill="white"/>
<defs>
<clipPath id="clip0_502_36">
<rect width="28" height="13.0667" fill="white" transform="matrix(-4.37114e-08 1 1 4.37114e-08 18.6667 12)"/>
</clipPath>
</defs>
</svg>
