<svg width="25" height="25" viewBox="0 0 25 25" fill="none" xmlns="http://www.w3.org/2000/svg">
<g clip-path="url(#clip0_108_2)">
<g filter="url(#filter0_d_108_2)">
<path d="M6.32715 15.5874L9.81916 11.0488L13.8024 14.1777L17.2196 9.76733" fill="white"/>
<path d="M6.32715 15.5874L9.81916 11.0488L13.8024 14.1777L17.2196 9.76733" stroke="white" stroke-width="2" stroke-linecap="round" stroke-linejoin="round"/>
</g>
<path d="M21.203 5.48513C22.4415 5.48513 23.4456 4.4811 23.4456 3.24257C23.4456 2.00403 22.4415 1 21.203 1C19.9645 1 18.9604 2.00403 18.9604 3.24257C18.9604 4.4811 19.9645 5.48513 21.203 5.48513Z" fill="white" stroke="white" stroke-width="1.5" stroke-linecap="round" stroke-linejoin="round"/>
<path d="M15.2869 1.98245H6.80781C3.29446 1.98245 1.11597 4.47063 1.11597 7.98397V17.4134C1.11597 20.9267 3.25174 23.4043 6.80781 23.4043H16.846C20.3593 23.4043 22.5378 20.9267 22.5378 17.4134V9.20137" stroke="white" stroke-width="1.5" stroke-linecap="round" stroke-linejoin="round"/>
</g>
<defs>
<filter id="filter0_d_108_2" x="1.3271" y="8.76728" width="20.8925" height="15.8202" filterUnits="userSpaceOnUse" color-interpolation-filters="sRGB">
<feFlood flood-opacity="0" result="BackgroundImageFix"/>
<feColorMatrix in="SourceAlpha" type="matrix" values="0 0 0 0 0 0 0 0 0 0 0 0 0 0 0 0 0 0 127 0" result="hardAlpha"/>
<feOffset dy="4"/>
<feGaussianBlur stdDeviation="2"/>
<feComposite in2="hardAlpha" operator="out"/>
<feColorMatrix type="matrix" values="0 0 0 0 0 0 0 0 0 0 0 0 0 0 0 0 0 0 0.25 0"/>
<feBlend mode="normal" in2="BackgroundImageFix" result="effect1_dropShadow_108_2"/>
<feBlend mode="normal" in="SourceGraphic" in2="effect1_dropShadow_108_2" result="shape"/>
</filter>
<clipPath id="clip0_108_2">
<rect width="25" height="25" fill="white"/>
</clipPath>
</defs>
</svg>
