<svg width="25" height="25" viewBox="0 0 25 25" fill="none" xmlns="http://www.w3.org/2000/svg">
<path d="M6.32715 15.5874L9.81916 11.0488L13.8024 14.1777L17.2196 9.76733" stroke="#8D8D8D" stroke-width="1.5" stroke-linecap="round" stroke-linejoin="round"/>
<path d="M21.203 5.48513C22.4415 5.48513 23.4456 4.4811 23.4456 3.24257C23.4456 2.00403 22.4415 1 21.203 1C19.9645 1 18.9604 2.00403 18.9604 3.24257C18.9604 4.4811 19.9645 5.48513 21.203 5.48513Z" stroke="#8D8D8D" stroke-width="1.5" stroke-linecap="round" stroke-linejoin="round"/>
<path d="M15.2869 1.98245H6.80781C3.29446 1.98245 1.11597 4.47063 1.11597 7.98397V17.4134C1.11597 20.9267 3.25174 23.4043 6.80781 23.4043H16.846C20.3593 23.4043 22.5378 20.9267 22.5378 17.4134V9.20137" stroke="#8D8D8D" stroke-width="1.5" stroke-linecap="round" stroke-linejoin="round"/>
</svg>
