<svg width="24" height="23" viewBox="0 0 24 23" fill="none" xmlns="http://www.w3.org/2000/svg">
<path d="M16.6557 10.1137C18.8213 10.1137 20.5766 8.35843 20.5766 6.19284C20.5766 4.02844 18.8213 2.27194 16.6557 2.27194" stroke="#8D8D8D" stroke-width="1.5" stroke-linecap="round" stroke-linejoin="round"/>
<path d="M18.4588 14.3748C19.1057 14.4188 19.7479 14.5116 20.3818 14.6519C21.2606 14.8267 22.319 15.1871 22.6948 15.9755C22.9351 16.4809 22.9351 17.0696 22.6948 17.575C22.3202 18.3635 21.2606 18.7238 20.3818 18.9046" stroke="#8D8D8D" stroke-width="1.5" stroke-linecap="round" stroke-linejoin="round"/>
<path fill-rule="evenodd" clip-rule="evenodd" d="M9.01053 15.2191C13.3988 15.2191 17.1472 15.8838 17.1472 18.5394C17.1472 21.1961 13.4225 21.8835 9.01053 21.8835C4.62227 21.8835 0.875 21.2199 0.875 18.5632C0.875 15.9064 4.59848 15.2191 9.01053 15.2191Z" stroke="#8D8D8D" stroke-width="1.5" stroke-linecap="round" stroke-linejoin="round"/>
<path fill-rule="evenodd" clip-rule="evenodd" d="M9.01049 11.4284C6.11591 11.4284 3.79691 9.10819 3.79691 6.21359C3.79691 3.32019 6.11591 1 9.01049 1C11.9051 1 14.2253 3.32019 14.2253 6.21359C14.2253 9.10819 11.9051 11.4284 9.01049 11.4284Z" stroke="#8D8D8D" stroke-width="1.5" stroke-linecap="round" stroke-linejoin="round"/>
</svg>
