<svg width="26" height="24" viewBox="0 0 26 24" fill="none" xmlns="http://www.w3.org/2000/svg">
<path fill-rule="evenodd" clip-rule="evenodd" d="M15.8761 6.19114C15.8761 9.62807 13.0636 12.3823 9.55414 12.3823C6.04592 12.3823 3.23221 9.62807 3.23221 6.19114C3.23221 2.75425 6.04592 0 9.55414 0C13.0636 0 15.8761 2.75425 15.8761 6.19114ZM0 19.3926C0 16.211 4.40119 15.415 9.55414 15.415C14.7351 15.415 19.1083 16.2384 19.1083 19.4225C19.1083 22.604 14.707 23.4 9.55414 23.4C4.37321 23.4 0 22.5766 0 19.3926ZM18.4254 6.30338C18.4254 8.05359 17.8887 9.6867 16.9473 11.0433C16.8495 11.1827 16.9359 11.3709 17.1063 11.4008C17.3429 11.4394 17.5859 11.463 17.8339 11.4681C20.3017 11.5315 22.5163 9.97569 23.1281 7.63254C24.0351 4.15579 21.374 1.03406 17.9841 1.03406C17.6165 1.03406 17.2642 1.07144 16.9207 1.13995C16.8736 1.1499 16.8227 1.17233 16.7973 1.2122C16.7642 1.26326 16.7884 1.32929 16.8215 1.37289C17.8403 2.77181 18.4254 4.47468 18.4254 6.30338ZM22.5125 13.913C24.1712 14.2306 25.2612 14.8772 25.7129 15.8202C26.0957 16.5926 26.0957 17.4894 25.7129 18.2618C25.0222 19.7217 22.7936 20.1914 21.9274 20.3121C21.748 20.3371 21.6042 20.1876 21.6233 20.0107C22.066 15.9647 18.5463 14.0463 17.6356 13.6053C17.5973 13.5841 17.5885 13.5542 17.5923 13.5343C17.5949 13.5218 17.6114 13.5019 17.6406 13.4982C19.611 13.4609 21.7302 13.7262 22.5125 13.913Z" fill="white"/>
</svg>
