<svg width="24" height="25" viewBox="0 0 24 25" fill="none" xmlns="http://www.w3.org/2000/svg">
<path fill-rule="evenodd" clip-rule="evenodd" d="M22.9864 9.13794C22.2407 4.54897 18.3429 1.13504 13.6957 1.00064C13.4748 0.991982 13.2595 1.07154 13.0972 1.22177C12.9349 1.372 12.8391 1.58059 12.8307 1.80156V1.87632L13.354 9.70392C13.3883 10.2309 13.8413 10.6314 14.3685 10.601L22.2175 10.0777C22.4386 10.0613 22.6442 9.95744 22.7885 9.78909C22.9328 9.62074 23.0041 9.40172 22.9864 9.18066V9.13794Z" fill="white"/>
<path d="M8.26021 5.65662C8.75949 5.54113 9.27042 5.7966 9.4776 6.26532C9.53187 6.37556 9.56454 6.49519 9.57376 6.61772C9.68051 8.13412 9.90474 11.4552 10.033 13.2493C10.0548 13.5725 10.2046 13.8736 10.4491 14.086C10.6935 14.2985 11.0126 14.4048 11.3358 14.3813L17.9246 13.9754C18.2188 13.9578 18.5072 14.0625 18.7215 14.2646C18.9358 14.4668 19.0571 14.7487 19.0565 15.0434C18.7895 19.0221 15.9309 22.3484 12.0375 23.2105C8.14414 24.0727 4.14849 22.2644 2.22665 18.7703C1.65294 17.7646 1.28962 16.6529 1.15875 15.5026C1.10281 15.1494 1.08136 14.7919 1.09468 14.4346C1.10602 10.1856 4.09011 6.52457 8.24953 5.65662" fill="white"/>
</svg>
