<svg width="24" height="25" viewBox="0 0 24 25" fill="none" xmlns="http://www.w3.org/2000/svg">
<path d="M8.70836 22.4427V18.9396C8.70834 18.0485 9.44467 17.3245 10.3569 17.3185H13.6987C14.6153 17.3185 15.3585 18.0443 15.3585 18.9396V22.4536C15.3582 23.2101 15.9766 23.8284 16.7508 23.8462H18.9787C21.1996 23.8462 23 22.0878 23 19.9187V9.95322C22.9882 9.09991 22.5779 8.2986 21.8861 7.77734L14.2668 1.78282C12.932 0.73906 11.0345 0.73906 9.69973 1.78282L2.11393 7.78823C1.41946 8.30736 1.00856 9.11 1 9.9641V19.9187C1 22.0878 2.80039 23.8462 5.02126 23.8462H7.24911C8.04272 23.8462 8.68607 23.2178 8.68607 22.4427" stroke="#8D8D8D" stroke-width="1.5" stroke-linecap="round" stroke-linejoin="round"/>
</svg>
