<svg width="26" height="27" viewBox="0 0 26 27" fill="none" xmlns="http://www.w3.org/2000/svg">
<path d="M9.10988 25.3414V21.2013C9.10985 20.1482 9.98006 19.2926 11.0582 19.2856H15.0076C16.0909 19.2856 16.9691 20.1432 16.9691 21.2013V25.3542C16.9688 26.2483 17.6996 26.9791 18.6146 27H21.2476C23.8722 27 26 24.9219 26 22.3584V10.5811C25.986 9.57262 25.5012 8.62562 24.6836 8.00959L15.679 0.925152C14.1014 -0.308384 11.859 -0.308384 10.2815 0.925152L1.31646 8.02245C0.495724 8.63597 0.0101126 9.58455 0 10.5939V22.3584C0 24.9219 2.12773 27 4.7524 27H7.38531C8.32322 27 9.08354 26.2574 9.08354 25.3414" fill="white"/>
</svg>
