<svg width="137" height="51" viewBox="0 0 137 51" fill="none" xmlns="http://www.w3.org/2000/svg">
<mask id="mask0_101_2" style="mask-type:luminance" maskUnits="userSpaceOnUse" x="20" y="11" width="15" height="29">
<path d="M20.2963 39.2308L20.2963 11.7692L34.5038 11.7692L34.5038 39.2308L20.2963 39.2308Z" fill="white"/>
</mask>
<g mask="url(#mask0_101_2)">
<path d="M22.8325 36.7384L23.0311 36.9188C23.4925 37.2249 24.0106 37.3157 24.5741 37.2938C25.1112 37.273 25.6508 37.2887 26.188 37.2894C26.2555 37.2894 26.323 37.2967 26.4209 37.3023C26.4144 37.6576 26.3959 37.9973 26.4056 38.3358C26.4157 38.7062 26.6099 38.9858 26.9866 39.1408C27.3633 39.2959 27.7206 39.247 28.0391 39.0143C28.2991 38.8242 28.4018 38.5629 28.4 38.2634C28.3981 37.9413 28.4 37.6191 28.4 37.2858C29.1455 37.2869 29.8549 37.2927 30.5642 37.2878C31.6481 37.2803 32.3807 36.6109 32.384 35.6273C32.3849 35.3319 32.3702 35.0364 32.3623 34.7309C32.4891 34.7283 32.5739 34.7252 32.6586 34.7249C33.7584 34.721 34.4938 34.0579 34.5009 33.0629C34.5023 32.8787 34.5019 32.6946 34.5009 32.5105C34.4972 31.4597 33.7723 30.803 32.6144 30.8026C31.2965 30.802 29.9788 30.802 28.6612 30.8026C28.5781 30.8026 28.4953 30.7986 28.4413 30.7971V20.178C28.5051 20.1839 28.5904 20.1989 28.6759 20.199C30.025 20.2004 31.3741 20.2056 32.7234 20.1983C33.7483 20.1927 34.4872 19.5152 34.5017 18.5854C34.5054 18.3447 34.5058 18.1038 34.5017 17.8631C34.4849 16.977 33.7653 16.3129 32.7876 16.2787C32.6569 16.2741 32.5261 16.2731 32.3707 16.2699C32.3758 15.9642 32.386 15.6743 32.3845 15.3842C32.3817 14.3848 31.6519 13.7174 30.5551 13.7116C29.9155 13.7083 29.2761 13.7116 28.6364 13.7106C28.5614 13.7106 28.4862 13.7049 28.3725 13.7003C28.3811 13.3353 28.4052 12.9879 28.3931 12.6425C28.3807 12.2811 28.1823 12.009 27.8146 11.8584C27.4391 11.7047 27.0803 11.7519 26.7617 11.984C26.5094 12.1684 26.4018 12.4211 26.4023 12.7138C26.4023 13.0432 26.4023 13.3726 26.4023 13.7149C25.7978 13.7133 25.2287 13.7218 24.6604 13.7079C24.1241 13.6948 23.6033 13.7245 23.1322 13.9902L22.735 14.3506C22.2981 14.9399 22.4438 15.6141 22.4105 16.3173C22.2962 16.3023 22.1952 16.2771 22.0957 16.278C21.0391 16.2875 20.3079 16.9552 20.2992 17.9148C20.2974 18.1202 20.2981 18.3256 20.2992 18.5309C20.3043 19.5261 21.0396 20.1961 22.1345 20.1986C23.109 20.2007 24.0838 20.1986 25.0584 20.1976C25.5014 20.1976 25.9443 20.1957 26.3689 20.1947V30.794C26.3035 30.7952 26.2197 30.7983 26.1356 30.7984C24.7868 30.7984 23.4378 30.794 22.0888 30.8003C21.0509 30.805 20.3123 31.4825 20.3014 32.4254C20.2988 32.6589 20.2966 32.8926 20.3014 33.1262C20.3216 34.0142 21.0842 34.7044 22.0648 34.7184C22.1792 34.7199 22.2943 34.6807 22.4503 34.6531C22.4336 34.8304 22.4213 34.915 22.4184 34.9999C22.3965 35.6109 22.3713 36.2229 22.8325 36.7384Z" fill="#E7E7E7"/>
</g>
<path d="M19.1193 13.9395V18.4542H8.67083V23.3313H16.4889V27.7142H8.67083V37.0731H2.42363V13.9395H19.1193Z" fill="#E7E7E7"/>
<path d="M55.4481 13.9395V18.4542H48.6529V37.0731H42.4057V18.4542H35.6105V13.9395H55.4481ZM75.2791 13.9395V18.4542H64.8306V23.3313H72.6487V27.7142H64.8306V37.0731H58.5834V13.9395H75.2791ZM94.5276 32.9868H84.9559L83.4215 37.0731H76.882L86.1615 13.9395H93.3951L102.675 37.0731H96.062L94.5276 32.9868ZM92.9201 28.6369L89.7417 20.1678L86.5999 28.6369H92.9201ZM134.543 13.9395V37.0731H128.295V23.1995L122.56 37.0731H117.518L111.746 23.1666V37.0731H105.499V13.9395H112.878L120.075 29.955L127.199 13.9395H134.543Z" fill="#E7E7E7"/>
</svg>
